<svg xmlns="http://www.w3.org/2000/svg" width="206.994" height="47.998"><path d="M206.875 2.212l-1.896 3.092a.79.79 0 01-.681.38.82.82 0 01-.315-.063c-.662-.287-1.204-.431-1.607-.431-1.019 0-1.995.425-2.979 1.303-1.003.894-1.788 2.339-2.332 4.292-.429 1.544-.646 4.786-.646 9.632v9.641a.8.8 0 01-.797.804h-3.718a.802.802 0 01-.799-.804V13.652c0-6.816 3.59-11.036 6.664-12.581A10.097 10.097 0 01202.216 0c.245 0 .416.012.496.018 1.221.008 2.729.428 3.872 1.066.191.108.331.29.386.501.052.21.02.439-.095.627zM180.689 16.9h-24.162a.399.399 0 00-.398.447c.279 2.523 1.236 4.651 2.842 6.328 1.891 1.972 4.163 2.931 6.946 2.931 1.333 0 2.654-.239 3.927-.709 1.266-.469 2.35-1.094 3.224-1.86.523-.455 1.083-1.1 1.67-1.912a.8.8 0 011.032-.233l3.146 1.744a.827.827 0 01.392.516.82.82 0 01-.114.639 15.814 15.814 0 01-2.385 2.844 14.57 14.57 0 01-4.701 2.95c-1.732.67-3.709 1.008-5.879 1.008-4.833 0-8.678-1.633-11.424-4.853-2.716-3.183-4.096-6.836-4.096-10.858 0-3.78 1.169-7.199 3.474-10.161 2.937-3.786 6.919-5.705 11.838-5.705 5.055 0 9.15 1.961 12.174 5.832 2.148 2.731 3.256 6.176 3.292 10.239a.82.82 0 01-.231.574.792.792 0 01-.567.239zm-5.237-5.319c-.406-1.14-.913-2.097-1.506-2.844-.847-1.063-1.99-1.941-3.396-2.604a10.512 10.512 0 00-4.478-.997c-2.596 0-4.762.817-6.623 2.491-1.03.927-1.886 2.253-2.542 3.943a.4.4 0 00.371.548h17.801c.13 0 .251-.063.326-.171a.408.408 0 00.047-.366zm-46.476 20.013c-2.36 0-4.567-.503-6.557-1.496a15.388 15.388 0 01-3.3-2.252.391.391 0 00-.427-.065.4.4 0 00-.234.367v19.043a.804.804 0 01-.799.807h-3.638a.804.804 0 01-.799-.807V16.105c0-4.479 1.519-8.303 4.515-11.36 3.07-3.136 6.817-4.728 11.136-4.728 4.216 0 7.875 1.552 10.874 4.613 2.996 3.062 4.515 6.795 4.515 11.099 0 4.386-1.504 8.164-4.472 11.234-2.974 3.074-6.612 4.631-10.814 4.631zm8.887-21.108c-.937-1.682-2.212-3.002-3.791-3.924a10.125 10.125 0 00-5.198-1.401c-2.945 0-5.358 1.008-7.377 3.083-2.018 2.081-2.998 4.601-2.998 7.708 0 2.013.45 3.844 1.338 5.441.88 1.587 2.164 2.868 3.815 3.799 1.665.94 3.44 1.416 5.273 1.416 1.798 0 3.517-.477 5.107-1.419 1.59-.947 2.874-2.284 3.813-3.98.949-1.699 1.43-3.503 1.43-5.36a10.867 10.867 0 00-1.412-5.363zM91.125 31.594c-2.361 0-4.566-.503-6.559-1.496a15.491 15.491 0 01-3.3-2.253.39.39 0 00-.263-.099.472.472 0 00-.166.033.406.406 0 00-.234.369v19.043a.804.804 0 01-.799.807h-3.636a.804.804 0 01-.799-.807V16.105c0-4.479 1.52-8.303 4.514-11.36C82.953 1.609 86.699.017 91.02.017c4.217 0 7.875 1.552 10.875 4.613 2.992 3.059 4.51 6.794 4.51 11.099 0 4.387-1.504 8.166-4.469 11.234-2.973 3.074-6.61 4.631-10.811 4.631zm8.886-21.109c-.937-1.681-2.21-3.001-3.789-3.923a10.13 10.13 0 00-5.201-1.401c-2.946 0-5.359 1.008-7.375 3.083-2.02 2.081-3.001 4.601-3.001 7.708 0 2.01.45 3.841 1.339 5.441.884 1.587 2.167 2.868 3.817 3.799 1.663.94 3.438 1.416 5.273 1.416 1.799 0 3.516-.476 5.104-1.419 1.588-.944 2.874-2.283 3.817-3.98.948-1.701 1.43-3.505 1.43-5.36.001-1.875-.476-3.68-1.414-5.364zM67.164 16.9H43.001a.398.398 0 00-.397.447c.277 2.522 1.233 4.651 2.842 6.328 1.891 1.972 4.162 2.931 6.944 2.931 1.333 0 2.655-.239 3.928-.709 1.266-.469 2.351-1.096 3.226-1.86.521-.455 1.084-1.099 1.671-1.912a.8.8 0 011.03-.233l3.146 1.744a.818.818 0 01.39.516.819.819 0 01-.112.639c-.73 1.098-1.534 2.056-2.386 2.844a14.634 14.634 0 01-4.702 2.95c-1.732.67-3.711 1.008-5.879 1.008-4.834 0-8.679-1.633-11.424-4.853-2.716-3.183-4.095-6.836-4.095-10.858 0-3.78 1.168-7.199 3.472-10.161C43.594 1.935 47.576.016 52.494.016c5.053 0 9.149 1.961 12.175 5.832 2.149 2.734 3.256 6.179 3.292 10.239a.815.815 0 01-.231.574.79.79 0 01-.566.239zm-5.236-5.319c-.405-1.14-.914-2.094-1.509-2.844-.848-1.063-1.989-1.941-3.394-2.604a10.52 10.52 0 00-4.479-.997c-2.562 0-4.789.836-6.62 2.491-1.033.929-1.888 2.255-2.545 3.943a.404.404 0 00.371.548h17.802a.394.394 0 00.325-.171.397.397 0 00.049-.366zM15.755 31.594c-2.36 0-4.566-.503-6.559-1.496a15.388 15.388 0 01-3.3-2.252.39.39 0 00-.427-.064.401.401 0 00-.235.366v19.043a.803.803 0 01-.798.807H.8a.804.804 0 01-.8-.807V16.105c0-4.479 1.52-8.303 4.515-11.36C7.585 1.609 11.333.017 15.652.017c4.215 0 7.874 1.552 10.874 4.612 2.993 3.059 4.513 6.793 4.513 11.1 0 4.388-1.504 8.167-4.471 11.234-2.972 3.074-6.61 4.631-10.813 4.631zm8.885-21.109c-.934-1.679-2.209-3-3.788-3.923a10.12 10.12 0 00-5.198-1.401c-2.947 0-5.36 1.008-7.378 3.083-2.018 2.081-2.999 4.601-2.999 7.708 0 2.01.449 3.841 1.336 5.442.884 1.589 2.167 2.867 3.817 3.798 1.665.94 3.44 1.416 5.275 1.416 1.797 0 3.516-.477 5.104-1.419 1.591-.947 2.874-2.286 3.816-3.98.947-1.698 1.427-3.502 1.427-5.36a10.866 10.866 0 00-1.412-5.364z" fill-rule="evenodd" clip-rule="evenodd" fill="#fff"/></svg>