<svg width="148" height="65" viewBox="0 0 148 65" fill="none" xmlns="http://www.w3.org/2000/svg">
<path d="M1.20278 31V29.2292L4.11201 28.5335V11.3311L1.20278 10.6354V8.86458H17.836V15.3471H16.0651L14.8003 11.2995H9.2664V18.5725L15.1481 18.0982V21.2288L9.2664 20.7861V28.5335L12.8081 29.2292V31H1.20278ZM19.2968 31V29.324L21.9846 28.6916V18.0666H19.2968V16.3906L24.3563 15.189H26.8544V17.0863C28.4355 15.5052 30.3118 14.7147 32.4831 14.7147C32.6096 15.1152 32.6729 15.5579 32.6729 16.0428C32.6729 17.0125 32.5675 17.919 32.3567 18.7623L28.3723 18.0982C27.8663 18.3301 27.3604 18.6674 26.8544 19.1101V28.6916L30.1747 29.324V31H19.2968ZM34.0615 22.9048C34.0615 20.4172 34.7572 18.4355 36.1486 16.9598C37.561 15.463 39.4689 14.7147 41.8722 14.7147C44.3176 14.7147 46.1622 15.5474 47.406 17.2128C48.6709 18.8782 49.3033 20.9337 49.3033 23.3791H38.9313C39.0789 24.9391 39.6375 26.2883 40.6073 27.4267C41.577 28.544 42.8208 29.1027 44.3387 29.1027C45.4771 29.1027 46.6998 28.8602 48.0068 28.3754L48.6709 30.1778C46.7103 31.0422 44.7919 31.4743 42.9157 31.4743C40.1962 31.4743 38.0354 30.6838 36.4332 29.1027C34.8521 27.5005 34.0615 25.4345 34.0615 22.9048ZM38.9313 21.4185L44.2754 21.0707C44.2754 20.5647 44.2438 20.1009 44.1806 19.6793C44.1173 19.2366 43.9381 18.7096 43.643 18.0982C43.116 17.2128 42.4941 16.7701 41.7773 16.7701C40.934 16.7701 40.2384 17.2023 39.6902 18.0666C39.374 18.5936 39.1632 19.1734 39.0578 19.8058C38.9524 20.4382 38.9102 20.9758 38.9313 21.4185ZM51.2931 22.9048C51.2931 20.4172 51.9887 18.4355 53.3801 16.9598C54.7926 15.463 56.7004 14.7147 59.1037 14.7147C61.5491 14.7147 63.3938 15.5474 64.6376 17.2128C65.9024 18.8782 66.5349 20.9337 66.5349 23.3791H56.1628C56.3104 24.9391 56.8691 26.2883 57.8388 27.4267C58.8086 28.544 60.0524 29.1027 61.5702 29.1027C62.7086 29.1027 63.9313 28.8602 65.2384 28.3754L65.9024 30.1778C63.9419 31.0422 62.0235 31.4743 60.1472 31.4743C57.4277 31.4743 55.2669 30.6838 53.6647 29.1027C52.0836 27.5005 51.2931 25.4345 51.2931 22.9048ZM56.1628 21.4185L61.507 21.0707C61.507 20.5647 61.4754 20.1009 61.4121 19.6793C61.3489 19.2366 61.1697 18.7096 60.8745 18.0982C60.3475 17.2128 59.7256 16.7701 59.0088 16.7701C58.1656 16.7701 57.4699 17.2023 56.9218 18.0666C56.6056 18.5936 56.3947 19.1734 56.2893 19.8058C56.1839 20.4382 56.1418 20.9758 56.1628 21.4185ZM75.5022 31V29.2292L78.4114 28.5335V11.3311L75.5022 10.6354V8.86458H85.1785C87.645 8.86458 89.6056 9.29675 91.0602 10.1611C92.5148 11.0043 93.2421 12.3641 93.2421 14.2403C93.2421 15.3787 92.8311 16.4117 92.0089 17.3393C91.1867 18.2458 90.217 18.8361 89.0997 19.1101V19.205C90.8494 19.5212 92.2408 20.1747 93.2738 21.1655C94.3068 22.1353 94.8232 23.3369 94.8232 24.7705C94.8232 26.6467 94.0222 28.154 92.42 29.2924C90.8178 30.4308 88.794 31 86.3485 31H75.5022ZM83.5658 28.7548H84.6726C87.9402 28.7548 89.574 27.4267 89.574 24.7705C89.574 23.4845 89.1734 22.4831 88.3724 21.7664C87.5923 21.0496 86.4118 20.6912 84.8307 20.6912H83.5658V28.7548ZM83.5658 18.3828H84.0085C85.1258 18.3828 86.0639 18.0455 86.8229 17.3709C87.6029 16.6963 87.9929 15.7476 87.9929 14.5249C87.9929 12.2481 86.6015 11.1097 83.8188 11.1097H83.5658V18.3828ZM96.5298 31V29.324L99.2177 28.6916V18.0666H96.5298V16.3906L101.589 15.189H104.088V28.6916L106.775 29.324V31H96.5298ZM98.7118 10.3192C98.7118 9.49702 98.9964 8.81188 99.5656 8.26376C100.135 7.69457 100.83 7.40997 101.653 7.40997C102.496 7.40997 103.192 7.69457 103.74 8.26376C104.309 8.81188 104.593 9.49702 104.593 10.3192C104.593 11.1624 104.309 11.8687 103.74 12.4379C103.192 13.0071 102.496 13.2917 101.653 13.2917C100.83 13.2917 100.135 13.0071 99.5656 12.4379C98.9964 11.8687 98.7118 11.1624 98.7118 10.3192ZM108.203 31V29.324L110.891 28.6916V18.0666H108.203V16.3906L113.262 15.189H115.76V17.0863C117.342 15.5052 119.218 14.7147 121.389 14.7147C121.516 15.1152 121.579 15.5579 121.579 16.0428C121.579 17.0125 121.474 17.919 121.263 18.7623L117.278 18.0982C116.772 18.3301 116.266 18.6674 115.76 19.1101V28.6916L119.081 29.324V31H108.203ZM122.906 23.6637C122.906 20.8177 123.802 18.6147 125.594 17.0547C127.407 15.4947 129.61 14.7147 132.203 14.7147C132.856 14.7147 133.468 14.7779 134.037 14.9044V8.57998H131.349V6.90402L136.408 5.70238H138.938V28.6283H141.405V29.9881C141.278 30.0935 141.099 30.2305 140.867 30.3992C140.656 30.5678 140.224 30.7892 139.571 31.0632C138.917 31.3373 138.295 31.4743 137.705 31.4743C136.82 31.4743 136.071 31.2635 135.46 30.8419C134.869 30.4203 134.448 29.967 134.195 29.4821C133.035 30.8103 131.612 31.4743 129.926 31.4743C128.008 31.4743 126.353 30.8103 124.961 29.4821C123.591 28.1329 122.906 26.1935 122.906 23.6637ZM127.902 23.5372C127.902 25.2659 128.271 26.5729 129.009 27.4583C129.768 28.3437 130.516 28.7865 131.254 28.7865C132.308 28.7865 133.236 28.3965 134.037 27.6164V16.9914C133.447 16.8439 132.93 16.7701 132.487 16.7701C131.096 16.7701 129.979 17.3287 129.135 18.4461C128.313 19.5423 127.902 21.2393 127.902 23.5372Z" fill="#2F2F2F"/>
<g clip-path="url(#clip0_398_82)">
<path d="M49.0003 41.123C54.5774 49.1055 78.8417 57.0512 95.1624 56.5525C112.803 56.0535 122.464 52.5629 141.271 39.7275C141.217 41.1328 141.051 42.2765 141.078 43.3197C141.059 44.5099 141.05 45.7683 141.302 46.9154C141.356 47.256 142.063 47.7721 142.481 47.7756C142.898 47.779 143.501 47.1945 143.582 46.8324C144.282 43.3691 144.847 39.9274 145.469 36.4067C145.635 35.263 145.098 34.5103 143.892 34.3529C139.313 33.9632 134.723 33.5055 130.088 33.1947C129.038 33.1519 127.862 33.6183 126.506 33.8337C128.056 36.5902 130.442 35.8619 132.323 36.331C134.283 36.8576 136.325 37.022 138.827 37.4623C133.807 42.1707 128.493 45.4595 122.698 47.9166C101.49 57.0134 80.42 55.6132 59.675 46.2004C56.9752 44.9535 54.4353 43.4018 51.7925 42.0759C50.9928 41.8539 50.2608 41.621 49.0003 41.123Z" fill="var(--naranja)"/>
</g>
<defs>
<clipPath id="clip0_398_82">
<rect width="96.1304" height="23.346" fill="white" transform="matrix(0.987606 -0.156951 -0.156951 -0.987606 52.6641 64.1797)"/>
</clipPath>
</defs>
</svg>
